<svg width="64" height="64" viewBox="0 0 64 64" fill="none" xmlns="http://www.w3.org/2000/svg">
  <defs>
    <linearGradient id="kokyuOuter" x1="12" y1="12" x2="52" y2="52" gradientUnits="userSpaceOnUse">
      <stop stop-color="#23B0C9"/>
      <stop offset="1" stop-color="#EF476F"/>
    </linearGradient>
    <radialGradient id="kokyuInner" cx="0" cy="0" r="1" gradientUnits="userSpaceOnUse" gradientTransform="translate(32 18) rotate(90) scale(34)">
      <stop stop-color="#2A2A2A"/>
      <stop offset="1" stop-color="#111111"/>
    </radialGradient>
    <linearGradient id="kokyuFold" x1="20" y1="16" x2="44" y2="48" gradientUnits="userSpaceOnUse">
      <stop stop-color="#FFFFFF"/>
      <stop offset="1" stop-color="#F2F2F2"/>
    </linearGradient>
  </defs>

  <circle cx="32" cy="32" r="29" fill="url(#kokyuOuter)"/>
  <circle cx="32" cy="32" r="25.5" fill="url(#kokyuInner)"/>

  <path d="M32 12L46.5 20.5L39.5 31.5L49 41L32 52L15 41L24.5 31.5L17.5 20.5L32 12Z" fill="url(#kokyuFold)"/>
  <path d="M32 12L24.5 31.5L15 41L17.5 20.5L32 12Z" fill="#23B0C9" fill-opacity="0.35"/>
  <path d="M32 12L39.5 31.5L49 41L46.5 20.5L32 12Z" fill="#EF476F" fill-opacity="0.38"/>
  <path d="M24.5 31.5L32 52L15 41L24.5 31.5Z" fill="#FFFFFF" fill-opacity="0.88"/>
  <path d="M39.5 31.5L32 52L49 41L39.5 31.5Z" fill="#FFFFFF" fill-opacity="0.93"/>
  <path d="M32 12V52M17.5 20.5L46.5 20.5M24.5 31.5H39.5" stroke="#111111" stroke-opacity="0.28" stroke-width="1.5" stroke-linecap="round"/>
</svg>
